<svg xmlns="http://www.w3.org/2000/svg" version="1.0" width="151" height="40" viewBox="0 0 3443.000000 1029.000000" preserveAspectRatio="xMidYMid meet">

    <g transform="translate(0.000000,1029.000000) scale(0.100000,-0.100000)" fill="#0075C4" stroke="none">
    <path d="M5314 10249 c4 -24 13 -78 21 -119 8 -41 26 -142 40 -225 14 -82 32 -184 40 -225 7 -41 21 -115 29 -165 9 -49 25 -139 36 -199 11 -60 19 -110 18 -111 -2 -2 -136 1 -298 5 -224 7 -350 5 -521 -6 -125 -7 -233 -16 -240 -18 -8 -3 -43 -7 -79 -11 -153 -14 -465 -74 -655 -126 -793 -215 -1492 -598 -2086 -1142 -883 -807 -1449 -1916 -1583 -3097 -25 -220 -27 -255 -30 -465 -9 -558 83 -1140 271 -1719 345 -1064 962 -1901 1705 -2312 254 -140 573 -248 838 -284 665 -89 1243 64 1785 474 95 72 288 241 364 319 l54 56 116 -111 c145 -138 312 -274 461 -373 129 -86 389 -218 524 -264 523 -182 1123 -165 1656 47 346 138 633 333 935 636 314 315 543 642 765 1091 322 652 506 1341 560 2098 9 118 5 535 -4 627 -3 25 -10 92 -16 150 -43 419 -172 924 -333 1305 -106 249 -278 562 -462 843 -30 45 -52 82 -49 82 3 0 43 -18 89 -39 115 -54 210 -117 292 -195 39 -36 73 -66 76 -66 4 0 14 14 23 32 17 33 121 148 134 148 3 0 -1 -30 -11 -67 -9 -38 -20 -104 -23 -148 -6 -78 -6 -79 11 -55 9 14 40 48 67 75 47 46 51 48 54 27 2 -12 -1 -45 -7 -73 -15 -68 -14 -123 3 -164 8 -19 50 -80 93 -134 l78 -100 11 43 c6 24 24 67 40 96 l29 54 6 -95 c11 -165 42 -261 145 -439 27 -47 60 -106 74 -132 14 -27 28 -44 33 -39 16 16 21 292 8 412 -37 338 -118 620 -255 892 -53 103 -54 107 -31 107 19 0 123 -28 172 -47 12 -5 15 3 13 38 -5 79 0 87 20 35 24 -62 64 -119 104 -149 39 -31 156 -90 156 -80 0 5 -5 25 -11 46 -12 43 -18 127 -10 127 3 0 25 -33 49 -74 23 -40 61 -95 84 -120 48 -55 191 -172 335 -275 57 -40 105 -77 109 -82 11 -18 25 -8 19 14 -30 97 -118 289 -194 421 -202 349 -441 599 -697 726 -255 127 -550 147 -1008 70 -98 -17 -181 -28 -184 -25 -7 7 75 140 125 201 24 31 43 57 41 58 -2 1 -25 11 -53 21 l-50 19 64 8 c71 8 155 44 191 83 22 23 22 25 4 25 -26 0 -89 39 -78 49 5 5 32 14 59 20 77 19 264 115 320 165 l50 44 -60 -14 c-453 -105 -641 -162 -795 -239 -169 -85 -338 -235 -439 -390 -29 -44 -54 -81 -55 -83 -2 -1 -44 28 -94 65 -285 214 -600 294 -914 233 -57 -11 -104 -20 -105 -20 -2 0 -3 -3 -3 -8 0 -4 24 -13 53 -19 28 -7 82 -28 119 -47 67 -34 67 -34 125 -20 32 8 81 14 108 14 l50 -1 -77 -26 c-43 -14 -78 -28 -78 -32 1 -3 42 -31 93 -63 51 -31 154 -100 231 -155 132 -93 137 -98 110 -105 -16 -3 -78 -16 -139 -28 -266 -53 -605 -191 -790 -322 -111 -78 -291 -255 -374 -367 -55 -75 -141 -211 -141 -225 0 -2 33 10 73 28 39 19 101 43 137 55 36 12 70 25 75 29 6 4 36 45 67 92 31 47 68 96 81 108 l25 23 -14 -63 c-21 -101 -24 -98 51 -73 73 23 77 26 95 75 16 40 99 174 105 168 2 -2 -2 -28 -9 -58 -8 -30 -17 -72 -20 -92 l-7 -37 43 15 c55 19 231 64 253 64 11 0 -4 -29 -51 -97 -122 -178 -219 -404 -264 -618 -30 -141 -38 -399 -16 -560 27 -200 109 -528 208 -835 l31 -95 18 85 c9 47 27 108 39 137 l22 52 -25 98 c-23 86 -67 310 -67 337 0 6 18 -26 40 -69 22 -44 49 -90 58 -103 18 -23 18 -23 64 101 l46 125 -19 79 c-17 68 -49 301 -48 343 0 8 10 -10 23 -40 13 -30 38 -86 56 -125 30 -64 33 -68 40 -45 44 149 80 243 128 340 32 63 62 114 66 113 5 -1 34 -62 65 -135 134 -315 250 -497 431 -679 135 -135 214 -198 354 -281 140 -83 142 -83 102 4 -48 105 -193 319 -329 486 -33 40 -57 75 -55 77 3 3 39 -7 82 -21 42 -14 79 -24 82 -22 2 3 -20 115 -50 249 -30 134 -60 273 -66 309 -8 46 -19 74 -39 95 -55 60 -129 180 -119 191 3 2 30 -19 60 -46 31 -28 58 -50 60 -50 1 0 4 55 4 123 2 179 34 294 105 380 23 28 34 35 44 27 11 -9 60 -89 161 -260 41 -70 182 -353 223 -448 207 -474 338 -963 402 -1492 36 -300 37 -778 3 -1070 -30 -259 -85 -559 -140 -770 -312 -1196 -938 -2006 -1759 -2275 -380 -125 -788 -137 -1170 -35 -146 38 -224 68 -380 145 -209 102 -425 258 -588 422 l-68 69 113 141 c133 165 289 381 423 589 54 82 108 165 120 184 63 96 251 416 343 585 315 575 546 1123 662 1570 53 203 71 320 77 510 32 930 -590 1756 -1501 1994 -837 219 -1729 -133 -2193 -864 -154 -244 -239 -478 -298 -825 -14 -79 -14 -378 0 -485 35 -284 155 -676 329 -1083 326 -761 841 -1629 1313 -2209 46 -57 83 -107 83 -112 0 -14 -207 -199 -307 -273 -402 -299 -844 -442 -1308 -424 -328 12 -585 76 -860 214 -102 51 -277 164 -380 246 -102 82 -275 255 -370 371 -421 513 -721 1235 -849 2045 -15 97 -40 313 -52 455 -10 121 -6 525 6 660 134 1498 977 2805 2267 3518 502 278 1033 447 1643 522 142 18 654 31 717 18 l42 -8 -37 -55 c-21 -30 -127 -188 -237 -350 -109 -162 -225 -333 -257 -380 -32 -47 -58 -90 -58 -97 0 -7 32 -22 71 -34 203 -62 320 6 1010 582 130 108 244 202 255 209 15 9 54 4 204 -30 252 -56 454 -97 518 -104 68 -9 204 10 262 35 153 68 184 234 71 383 -102 136 -353 267 -693 362 -90 25 -170 48 -179 52 -9 4 -70 113 -136 242 -249 487 -431 791 -525 876 -54 49 -129 81 -207 90 l-63 7 6 -44z m-33 -3990 c308 -55 573 -194 795 -415 200 -200 330 -441 388 -720 42 -198 50 -462 21 -649 -98 -636 -589 -1724 -1164 -2575 -78 -116 -289 -400 -297 -400 -2 0 -54 69 -117 152 -532 714 -1076 1778 -1267 2478 -69 255 -94 421 -92 615 5 419 112 733 348 1016 202 242 505 423 820 488 126 26 140 27 310 29 104 2 170 -3 255 -19z"/>
    <path d="M4865 5381 c-113 -33 -176 -70 -261 -155 -117 -117 -169 -228 -180 -391 -7 -101 13 -203 61 -304 27 -57 55 -93 118 -156 126 -125 248 -175 429 -175 173 0 309 60 434 191 139 146 194 357 144 553 -29 115 -73 189 -165 282 -86 87 -159 130 -270 159 -80 20 -233 19 -310 -4z"/>
    <path d="M12380 6518 c-33 -17 -51 -35 -67 -68 l-23 -44 0 -1117 0 -1116 23 -43 c16 -30 37 -51 68 -68 43 -23 50 -23 251 -20 229 3 236 5 286 78 l22 33 0 473 0 474 600 0 600 0 0 -463 c0 -460 0 -463 23 -507 16 -33 34 -51 67 -67 41 -21 57 -23 235 -23 178 0 194 2 235 22 25 13 55 38 67 57 l23 34 0 1137 0 1137 -22 33 c-50 73 -57 75 -286 78 -199 3 -209 2 -252 -20 -33 -17 -51 -35 -67 -68 -23 -44 -23 -49 -23 -452 l0 -408 -600 0 -600 0 0 419 c0 417 0 418 -22 451 -50 73 -57 75 -286 78 -199 3 -209 2 -252 -20z"/>
    <path d="M20075 6531 c-11 -5 -29 -19 -40 -31 -20 -22 -20 -36 -20 -944 0 -708 3 -937 13 -991 39 -215 126 -360 268 -451 66 -43 127 -67 229 -90 154 -36 656 -15 745 31 46 24 60 67 60 186 0 178 -22 197 -213 184 -209 -14 -266 -12 -322 13 -91 41 -143 110 -169 222 -13 52 -16 137 -16 418 l0 352 249 0 c156 0 260 4 280 11 51 18 61 50 61 199 0 149 -10 181 -61 199 -20 7 -124 11 -280 11 l-249 0 0 305 c0 206 -4 312 -11 329 -23 49 -58 56 -291 55 -117 0 -222 -4 -233 -8z"/>
    <path d="M22772 6519 c-68 -34 -82 -72 -82 -226 0 -153 12 -185 80 -220 44 -23 49 -23 452 -23 l408 0 0 -949 0 -948 23 -33 c49 -73 56 -75 285 -78 199 -3 209 -2 252 20 33 17 51 35 68 68 l22 44 0 938 0 937 419 3 c406 3 420 4 447 24 62 46 69 65 72 202 3 116 1 131 -20 172 -17 33 -35 51 -68 68 l-44 22 -1136 0 -1135 0 -43 -21z"/>
    <path d="M33665 6531 c-11 -5 -29 -19 -40 -31 -20 -22 -20 -36 -20 -1211 l0 -1189 28 -27 27 -28 225 -3 c246 -3 280 3 304 54 8 18 11 341 11 1194 0 853 -3 1176 -11 1194 -23 49 -58 56 -291 55 -117 0 -222 -4 -233 -8z"/>
    <path d="M16017 5979 c-282 -20 -493 -88 -603 -196 -65 -62 -105 -153 -111 -252 -6 -79 -5 -80 25 -110 l30 -31 187 0 c217 0 223 2 319 88 77 70 135 96 259 113 149 21 292 -14 356 -86 39 -44 69 -130 77 -215 l7 -70 -316 0 c-460 0 -586 -17 -767 -106 -75 -37 -110 -62 -165 -118 -116 -117 -162 -243 -152 -416 17 -290 204 -478 551 -551 133 -29 381 -31 500 -5 115 25 234 71 316 122 39 24 73 44 75 44 1 0 5 -21 8 -46 3 -32 13 -55 31 -73 l26 -26 215 0 215 0 27 28 28 27 0 628 c0 708 0 702 -76 861 -107 221 -343 357 -678 391 -114 11 -221 11 -384 -1z m541 -1291 l-3 -143 -94 -47 c-218 -108 -456 -135 -591 -65 -131 67 -147 246 -30 339 63 50 116 57 433 57 l288 1 -3 -142z"/>
    <path d="M18665 5980 c-138 -22 -269 -80 -401 -179 l-79 -59 -6 72 c-7 88 -12 100 -55 121 -29 14 -68 16 -259 13 l-225 -3 -27 -28 -28 -27 0 -895 0 -895 28 -27 27 -28 225 -3 c191 -3 230 -1 259 13 19 9 38 24 43 33 4 9 10 291 13 627 l5 609 84 73 c132 113 263 173 381 173 112 0 206 -46 260 -128 65 -98 64 -87 70 -744 l5 -598 28 -27 27 -28 241 0 241 0 29 33 30 34 -4 616 c-3 545 -6 626 -21 692 -68 291 -244 474 -516 539 -99 24 -288 34 -375 21z"/>
    <path d="M26370 5979 c-183 -20 -327 -71 -485 -173 l-100 -65 -6 72 c-7 89 -12 101 -55 122 -29 14 -68 16 -259 13 l-225 -3 -27 -28 -28 -27 0 -895 0 -895 28 -27 27 -28 225 -3 c246 -3 280 3 304 54 8 18 11 190 11 596 l0 570 74 77 c81 83 157 134 245 164 50 18 81 20 279 18 l223 -2 29 30 30 29 0 171 0 171 -29 32 c-27 31 -33 33 -102 34 -41 1 -112 -2 -159 -7z"/>
    <path d="M27597 5979 c-282 -20 -493 -88 -603 -196 -65 -62 -105 -153 -111 -252 -6 -79 -5 -80 25 -110 l30 -31 187 0 c217 0 223 2 319 88 77 70 135 96 259 113 149 21 292 -14 356 -86 39 -44 69 -130 77 -215 l7 -70 -316 0 c-460 0 -586 -17 -767 -106 -75 -37 -110 -62 -165 -118 -116 -117 -162 -243 -152 -416 17 -290 204 -478 551 -551 133 -29 381 -31 500 -5 115 25 234 71 316 122 39 24 73 44 75 44 1 0 5 -21 8 -46 3 -32 13 -55 31 -73 l26 -26 215 0 215 0 27 28 28 27 0 628 c0 708 0 702 -76 861 -107 221 -343 357 -678 391 -114 11 -221 11 -384 -1z m541 -1291 l-3 -143 -94 -47 c-218 -108 -456 -135 -591 -65 -131 67 -147 246 -30 339 63 50 116 57 433 57 l288 1 -3 -142z"/>
    <path d="M32114 5980 c-278 -29 -515 -146 -649 -319 -139 -182 -198 -380 -199 -666 0 -333 77 -552 258 -730 126 -124 261 -192 467 -236 89 -19 134 -22 314 -22 596 0 896 148 913 450 4 81 4 83 -26 113 l-30 30 -184 0 c-214 0 -236 -7 -328 -94 -114 -109 -334 -145 -525 -85 -138 44 -223 160 -249 341 l-7 48 680 2 681 3 27 28 28 28 -1 157 c-4 472 -196 765 -589 899 -144 49 -400 72 -581 53z m267 -394 c37 -8 84 -23 105 -34 56 -29 119 -98 148 -162 27 -59 52 -181 42 -205 -5 -13 -60 -15 -406 -15 l-400 0 0 33 c0 47 27 152 51 198 78 155 260 227 460 185z"/>
    <path d="M28946 5929 c-54 -43 -58 -33 361 -926 213 -454 399 -841 413 -862 15 -20 51 -49 81 -66 l54 -30 195 0 c183 0 198 1 237 23 24 12 57 37 75 56 41 43 808 1671 815 1731 4 31 0 46 -15 65 -20 25 -21 25 -222 28 -236 4 -281 -5 -352 -67 -43 -39 -56 -66 -289 -600 -134 -308 -247 -561 -250 -561 -3 0 -113 246 -244 546 -131 300 -248 560 -259 577 -28 41 -90 83 -143 96 -23 6 -129 11 -236 11 -181 0 -196 -1 -221 -21z"/>
    <path d="M19025 2945 c-22 -8 -41 -15 -42 -15 -1 0 -9 -13 -18 -30 -28 -54 -14 -125 30 -154 58 -38 146 -24 180 27 67 103 -31 215 -150 172z"/>
    <path d="M23125 2945 c-22 -8 -41 -15 -42 -15 -1 0 -9 -13 -18 -30 -28 -54 -14 -125 30 -154 58 -38 146 -24 180 27 67 103 -31 215 -150 172z"/>
    <path d="M12170 2325 l0 -585 95 0 95 0 0 212 c0 116 5 240 11 275 20 114 95 183 210 191 97 7 166 -28 200 -102 17 -37 19 -70 19 -308 l0 -268 100 0 100 0 0 258 c0 141 -4 283 -10 316 -19 116 -78 197 -179 245 -50 23 -68 26 -166 26 -100 0 -116 -3 -172 -29 -34 -15 -70 -37 -79 -47 -9 -11 -21 -19 -26 -19 -4 0 -8 95 -8 210 l0 210 -95 0 -95 0 0 -585z"/>
    <path d="M21778 2673 l-3 -98 -67 -3 -68 -3 0 -74 0 -75 69 0 70 0 3 -257 c3 -254 3 -259 28 -303 34 -61 97 -106 167 -120 72 -15 169 -7 229 20 52 22 52 26 15 114 l-20 45 -35 -14 c-76 -32 -151 -11 -180 49 -13 28 -16 71 -16 250 l0 216 115 0 115 0 0 75 0 74 -112 3 -113 3 -3 98 -3 97 -94 0 -94 0 -3 -97z"/>
    <path d="M13415 2573 c-74 -15 -165 -54 -185 -78 -9 -11 -4 -27 25 -79 l36 -65 47 25 c130 68 293 70 365 6 26 -22 57 -90 57 -124 l0 -28 -142 0 c-176 0 -251 -13 -320 -53 -74 -45 -103 -99 -103 -192 0 -85 28 -142 93 -192 56 -43 109 -57 212 -58 103 0 169 18 226 62 l44 33 0 -45 0 -45 91 0 90 0 -3 308 c-3 296 -4 309 -26 357 -58 126 -178 186 -366 184 -39 0 -102 -7 -141 -16z m345 -519 c0 -53 -10 -76 -53 -122 -83 -86 -270 -79 -314 13 -15 32 -16 40 -3 78 23 66 55 77 228 77 l142 0 0 -46z"/>
    <path d="M15321 2575 c-214 -60 -338 -257 -303 -482 35 -222 212 -363 457 -363 117 0 246 45 305 105 l32 33 -48 56 c-26 31 -50 56 -52 56 -2 0 -22 -13 -45 -29 -59 -40 -111 -55 -192 -55 -112 1 -202 50 -246 136 -37 72 -56 68 312 68 l332 0 -6 88 c-3 48 -13 107 -22 132 -39 111 -125 200 -232 240 -76 29 -216 36 -292 15z m224 -159 c65 -27 115 -86 136 -158 l8 -28 -245 0 -244 0 20 52 c21 55 59 101 102 124 66 34 155 38 223 10z"/>
    <path d="M16665 2573 c-74 -15 -165 -54 -185 -78 -9 -11 -4 -27 25 -79 l36 -65 47 25 c130 68 293 70 365 6 26 -22 57 -90 57 -124 l0 -28 -142 0 c-176 0 -251 -13 -320 -53 -74 -45 -103 -99 -103 -192 0 -85 28 -142 93 -192 56 -43 109 -57 212 -58 103 0 169 18 226 62 l44 33 0 -45 0 -45 91 0 90 0 -3 308 c-3 296 -4 309 -26 357 -58 126 -178 186 -366 184 -39 0 -102 -7 -141 -16z m345 -519 c0 -53 -10 -76 -53 -122 -83 -86 -270 -79 -314 13 -15 32 -16 40 -3 78 23 66 55 77 228 77 l142 0 0 -46z"/>
    <path d="M18257 2580 c-51 -13 -128 -53 -151 -79 -29 -32 -36 -26 -36 29 l0 50 -90 0 -90 0 0 -420 0 -420 95 0 95 0 0 212 c0 116 5 240 11 275 20 114 95 183 210 191 97 7 166 -28 200 -102 17 -37 19 -70 19 -308 l0 -268 100 0 100 0 0 258 c0 277 -7 349 -41 419 -52 108 -150 164 -293 169 -50 2 -108 -1 -129 -6z"/>
    <path d="M19701 2579 c-72 -14 -168 -65 -219 -116 -161 -161 -159 -446 4 -607 150 -147 432 -167 597 -41 38 29 87 90 87 108 0 2 -32 24 -71 47 l-71 42 -42 -40 c-53 -53 -101 -72 -179 -72 -147 0 -247 105 -247 259 0 75 14 122 53 173 90 118 292 125 385 12 l28 -34 69 41 c39 22 71 42 73 44 7 7 -28 62 -60 91 -90 86 -255 123 -407 93z"/>
    <path d="M20571 2575 c-214 -60 -338 -257 -303 -482 35 -222 212 -363 457 -363 117 0 246 45 305 105 l32 33 -48 56 c-26 31 -50 56 -52 56 -2 0 -22 -13 -45 -29 -59 -40 -111 -55 -192 -55 -112 1 -202 50 -246 136 -37 72 -56 68 312 68 l332 0 -6 88 c-3 48 -13 107 -22 132 -39 111 -125 200 -232 240 -76 29 -216 36 -292 15z m224 -159 c65 -27 115 -86 136 -158 l8 -28 -245 0 -244 0 20 52 c21 55 59 101 102 124 66 34 155 38 223 10z"/>
    <path d="M22785 2576 c-64 -16 -103 -37 -139 -75 -17 -17 -33 -31 -38 -31 -4 0 -8 25 -8 55 l0 55 -90 0 -90 0 0 -420 0 -420 94 0 94 0 3 243 c4 240 4 242 31 297 41 83 118 130 214 130 l44 0 0 90 0 90 -32 -1 c-18 0 -55 -6 -83 -13z"/>
    <path d="M23897 2579 c-50 -12 -127 -52 -151 -78 -29 -32 -36 -26 -36 29 l0 50 -90 0 -90 0 0 -570 0 -570 95 0 95 0 0 195 c0 107 3 195 7 195 3 0 29 -16 57 -35 152 -103 383 -79 516 54 30 30 64 79 83 119 31 64 32 72 32 192 0 120 -1 128 -32 192 -73 155 -214 240 -391 237 -31 -1 -74 -5 -95 -10z m154 -165 c147 -43 218 -230 144 -380 -46 -93 -116 -134 -231 -134 -73 0 -131 27 -179 83 -120 140 -63 369 105 427 68 24 92 24 161 4z"/>
    <path d="M14064 2564 c3 -9 83 -195 177 -415 l171 -399 103 0 103 0 171 399 c94 220 174 406 177 415 5 14 -6 16 -87 16 l-94 0 -129 -301 c-71 -165 -132 -301 -136 -304 -3 -2 -63 132 -132 298 l-126 302 -102 3 c-91 2 -102 1 -96 -14z"/>
    <path d="M18970 2160 l0 -420 95 0 95 0 0 420 0 420 -95 0 -95 0 0 -420z"/>
    <path d="M23070 2160 l0 -420 95 0 95 0 0 420 0 420 -95 0 -95 0 0 -420z"/>
    </g>
    </svg>
