<!-- <svg width="41" height="40" viewBox="0 0 41 40" fill="none" xmlns="http://www.w3.org/2000/svg">
<path d="M30.5464 16.3169L31.0481 16.1052L31.2081 15.4279L31.3751 14.7536L32.7734 14.158C33.7216 13.7579 34.1852 13.5799 34.1998 13.6141C34.2191 13.6582 34.6891 18.0588 34.6962 18.2652C34.6974 18.3226 34.8228 18.2872 35.2945 18.0883L35.8905 17.8367L36.3248 15.1681L36.7614 12.5043L38.3549 11.8032C40.0772 11.0476 40.1048 11.0297 40.2349 10.6499C40.3251 10.3971 40.3193 10.2196 40.2114 9.96853C40.0778 9.65889 39.7801 9.43041 39.4461 9.39156C39.1917 9.35967 39.1917 9.35968 37.6024 10.03L36.0183 10.6986L33.7316 9.13759L31.4501 7.57428L30.864 7.82129C30.3278 8.04744 30.2821 8.07817 30.3389 8.14138C30.3753 8.18429 31.0703 8.99434 31.8849 9.94532C32.6995 10.8963 33.3758 11.7029 33.3887 11.7325C33.4098 11.7818 33.1033 11.9284 32.0309 12.3807L30.6454 12.9652L29.9955 12.6005L29.3503 12.234L28.8639 12.4393C28.422 12.626 28.3816 12.6544 28.4378 12.7176C28.4742 12.7605 28.7906 13.1554 29.1487 13.5909L29.7939 14.3929L29.917 15.3862C29.9826 15.9335 30.0377 16.4154 30.0424 16.4537C30.0436 16.5117 30.159 16.4804 30.5464 16.3169Z" fill="#63AB45"/>
<path d="M29.0293 15.302L27.9803 15.8645C24.13 17.9636 21.2818 19.9409 20.0101 21.4254C19.8695 21.5936 19.7464 21.7501 19.6409 21.9009C19.4358 21.6168 19.1721 21.4022 18.8029 21.4892C18.5216 21.553 18.3223 21.7269 18.1582 21.9473C19.1838 20.3584 21.8737 18.2362 25.853 15.8935C26.5914 15.4586 28.4433 14.4149 28.5956 14.3511C28.6308 14.3511 28.7304 14.5308 28.8359 14.815L29.0293 15.302Z" fill="#63AB45"/>
<path d="M18.8026 0.0116242C17.8357 0.139194 16.9507 0.301555 16.0658 0.730652C15.3977 1.05537 14.7414 1.49607 14.2374 2.04694C13.8271 2.49343 13.4462 2.96892 13.1708 3.51399C12.7312 4.38378 12.5613 5.28836 12.5613 6.25093C12.5613 6.55826 12.5378 6.86559 12.5964 7.16711C12.7547 8.03111 13.1122 8.85451 13.4638 9.64892C13.9854 10.8318 14.6007 11.9684 15.2219 13.0991C16.0072 14.5256 16.857 15.9172 17.7067 17.3089C17.9763 17.7496 18.2928 18.5904 18.9433 18.5266C19.5528 18.4628 19.7403 17.9119 20.045 17.4712C20.7835 16.3985 21.4691 15.2678 22.1431 14.1486C22.9577 12.7918 23.7664 11.4291 24.4462 10.0026C24.8447 9.16763 25.2726 8.28045 25.4249 7.35847C25.466 7.10333 25.4484 6.84239 25.4601 6.58145C25.507 5.5377 25.2784 4.48815 24.7803 3.56038C24.4814 3.00951 24.1063 2.51663 23.6668 2.06433C23.1276 1.51347 22.4771 1.06117 21.7797 0.724854C21.0882 0.394333 20.3674 0.162388 19.6055 0.0522145C19.3418 0.02902 19.0664 -0.0231675 18.8026 0.0116242Z" fill="#63AB45"/>
<path d="M6.32706 6.4714C5.82307 6.53518 5.33079 6.54098 4.83851 6.68015C3.36754 7.09185 2.08411 7.95584 1.14644 9.15036C0.595555 9.85779 0.284952 10.7334 0.13258 11.6032C-0.26593 13.853 0.361137 16.2711 2.17201 17.7903C2.71703 18.2484 3.39684 18.6891 4.07665 18.921C5.18428 19.2979 6.39153 19.3617 7.54603 19.4429C9.28658 19.5589 11.0447 19.5705 12.7911 19.5125C13.6819 19.4835 14.5727 19.4951 15.4635 19.4429C15.7624 19.4255 16.0788 19.4777 16.3777 19.4197C16.8876 19.3153 17.1982 18.8108 17.0224 18.318C16.9052 17.9874 16.6707 17.6743 16.5066 17.3612C16.1023 16.6074 15.692 15.8536 15.276 15.1055C14.2914 13.337 13.2717 11.5452 12.0644 9.91578C11.3963 9.01699 10.7341 8.04862 9.7437 7.46876C8.89393 6.97008 8.03245 6.60477 7.04204 6.51199C6.80176 6.483 6.55562 6.43661 6.32706 6.4714Z" fill="#63AB45"/>
<path d="M10.13 20.4744C9.84866 20.5092 9.54978 20.4802 9.26848 20.486C8.85239 20.4918 8.4363 20.515 8.02021 20.5324C7.28179 20.5672 6.54338 20.631 5.81082 20.7353C5.21892 20.8165 4.61529 20.8919 4.05269 21.1007C3.40218 21.3384 2.78684 21.7385 2.24768 22.1618C1.83744 22.4807 1.47996 22.875 1.17522 23.2983C0.132058 24.7654 -0.213708 26.6499 0.126197 28.4011C0.255127 29.0679 0.448521 29.7638 0.788427 30.361C1.04043 30.7959 1.40377 31.1902 1.76126 31.544C3.15018 32.9298 5.16031 33.7416 7.14114 33.5039C8.2136 33.3763 9.33294 32.924 10.1768 32.2572C11.1204 31.515 11.8295 30.4422 12.4917 29.4565C13.5232 27.9198 14.4784 26.331 15.3692 24.7132C15.8204 23.8898 16.2658 23.0606 16.723 22.2372C16.9515 21.8197 17.2211 21.4138 16.9222 20.9557C16.5823 20.428 15.715 20.5614 15.1641 20.5614C14.4022 20.5614 13.6404 20.4918 12.8785 20.486C12.5445 20.4802 12.2046 20.4976 11.8705 20.4802C11.4837 20.4628 11.0911 20.4628 10.7043 20.4686C10.5168 20.4744 10.3234 20.4512 10.13 20.4744Z" fill="#63AB45"/>
<path d="M37.515 29.5038C36.3136 32.7801 32.0062 34.5486 28.8592 32.9134C28.0797 32.5075 27.4175 32.0436 26.8549 31.3594C26.7201 31.197 26.4095 30.9361 26.3802 30.7216C26.2571 30.6636 26.1809 30.5128 26.1048 30.4084C25.9114 30.1475 25.718 29.8866 25.5421 29.614C24.9151 28.663 24.3115 27.7063 23.7254 26.7379C23.4793 26.332 23.239 25.9203 23.0046 25.5144C22.8522 25.2593 22.7057 25.0041 22.565 24.7548C22.1783 24.0705 21.8032 23.3805 21.4516 22.6847C21.2113 22.2092 20.7014 21.6409 20.9417 21.0843C21.2171 20.4348 21.9204 20.6262 22.4771 20.574C23.2156 20.5044 23.9657 20.5334 24.7041 20.516C25.5421 20.4928 26.3861 20.458 27.23 20.4754C28.7302 20.5102 30.2305 20.5102 31.7249 20.6842C32.4516 20.7711 33.19 20.8581 33.8816 21.0959C34.2742 21.235 34.6375 21.4496 34.9892 21.6699C35.5635 22.0236 36.0851 22.4469 36.5129 22.9746C36.9641 23.5197 37.304 24.1401 37.5385 24.8012L37.6967 25.3114L37.7143 25.3636L37.7201 25.3868C38.0659 26.7379 37.9956 28.1992 37.515 29.5038Z" fill="#63AB45"/>
<path d="M25.4547 33.4113C25.4782 34.339 25.3258 35.2088 24.9625 36.0728C24.7456 36.5831 24.4233 37.047 24.0775 37.4819C23.638 38.0269 23.093 38.4966 22.4952 38.8735C21.7509 39.3432 20.9422 39.6738 20.0807 39.8709C17.5431 40.4508 14.6598 39.0069 13.3588 36.8324C12.6907 35.7133 12.4446 34.368 12.5676 33.0807C12.6555 32.1414 13.0892 31.2136 13.4643 30.3612C14.1617 28.7956 14.9763 27.2763 15.8495 25.8093C16.4765 24.7539 17.0978 23.6986 17.7307 22.649C17.8596 22.4345 17.9768 22.2025 18.1292 21.9938C18.1351 21.9764 18.1468 21.9648 18.1585 21.9474C18.3226 21.727 18.5218 21.5531 18.8031 21.4893C19.1724 21.4023 19.4361 21.6169 19.6412 21.901C19.8053 22.1156 19.9342 22.3707 20.0573 22.5563C20.5085 23.2231 20.9363 23.9073 21.3583 24.5974C21.5341 24.8757 21.7041 25.154 21.874 25.4382C22.1026 25.8093 22.3253 26.1804 22.5538 26.5457C23.2864 27.7344 23.9662 28.9811 24.5581 30.2452C24.9156 31.0106 25.2848 31.8166 25.4196 32.6516C25.4606 32.9068 25.4489 33.1561 25.4547 33.4113Z" fill="#63AB45"/>
</svg> -->
<svg xmlns="http://www.w3.org/2000/svg" version="1.0" width="100px" height="100px" viewBox="0 0 2957.000000 2373.000000" preserveAspectRatio="xMidYMid meet">
    <g transform="translate(0.000000,2373.000000) scale(0.100000,-0.100000)" fill="#0075C4" stroke="none">
    <path d="M14400 23718 c0 -7 23 -141 51 -298 27 -157 70 -397 94 -535 24 -137 60 -337 80 -444 45 -250 45 -244 -2 -237 -70 11 -457 26 -668 26 -1399 -1 -2752 -413 -3911 -1191 -593 -399 -1168 -934 -1600 -1489 -969 -1246 -1495 -2777 -1478 -4300 4 -350 18 -524 70 -905 154 -1123 570 -2242 1157 -3114 195 -289 367 -501 607 -745 351 -358 672 -596 1070 -796 492 -247 987 -362 1550 -362 899 1 1676 345 2427 1076 l154 149 137 -134 c467 -459 925 -755 1442 -931 713 -243 1573 -210 2304 89 486 199 906 490 1326 919 402 410 729 881 1020 1469 340 685 574 1405 700 2153 41 245 55 362 86 682 19 203 24 632 10 875 -49 846 -274 1731 -621 2440 -155 317 -389 718 -562 967 -18 26 -33 50 -33 53 0 9 135 -46 210 -86 125 -67 236 -147 334 -241 52 -48 96 -88 99 -88 2 0 23 28 46 63 40 61 122 150 169 183 26 18 26 18 7 -36 -29 -83 -63 -344 -46 -354 4 -3 17 12 29 33 12 21 52 67 89 102 80 74 83 70 59 -61 -35 -182 -19 -243 103 -395 40 -50 87 -112 104 -138 l32 -49 16 65 c18 71 64 170 91 194 17 15 18 11 18 -84 0 -118 23 -262 57 -356 26 -74 82 -183 174 -342 31 -55 70 -126 85 -158 25 -50 29 -55 36 -36 9 23 22 209 22 309 0 149 -17 337 -49 525 -68 404 -153 667 -332 1019 l-70 137 51 -6 c41 -6 191 -50 243 -71 8 -4 9 5 1 35 -12 49 -1 150 13 114 59 -157 143 -253 281 -323 48 -24 90 -41 93 -38 4 3 -1 30 -9 59 -17 62 -27 172 -16 189 5 8 20 -11 39 -50 117 -229 183 -294 684 -660 143 -105 131 -98 122 -70 -19 65 -103 267 -155 375 -238 496 -590 932 -940 1164 -97 64 -272 146 -385 179 -200 59 -267 67 -540 66 -270 -1 -354 -9 -710 -69 -109 -19 -200 -33 -202 -32 -5 5 59 122 103 187 24 36 66 92 93 124 l51 60 -58 18 c-31 10 -67 26 -79 35 -22 18 -20 18 65 18 79 0 95 4 153 32 35 18 84 49 108 69 l44 38 -53 18 c-71 24 -119 68 -74 68 39 0 239 76 336 128 92 49 264 170 255 179 -11 10 -742 -176 -892 -227 -442 -151 -753 -386 -942 -712 -25 -43 -49 -78 -53 -78 -4 0 -36 23 -71 52 -164 132 -389 258 -570 319 -158 53 -252 70 -424 76 -165 6 -277 -6 -437 -44 -67 -16 -90 -33 -44 -33 38 0 176 -48 248 -87 l66 -36 84 16 c45 10 115 17 153 16 l70 0 -60 -18 c-33 -10 -84 -28 -113 -41 l-52 -23 91 -53 c149 -89 573 -383 565 -392 -2 -2 -37 -8 -78 -13 -179 -25 -500 -115 -730 -204 -431 -169 -740 -394 -1019 -747 -81 -102 -246 -354 -238 -363 2 -2 40 13 84 34 44 21 136 58 204 81 120 42 124 45 150 88 34 58 134 196 179 246 29 33 34 36 28 15 -13 -45 -40 -199 -35 -203 6 -7 178 49 188 60 4 5 15 30 25 55 19 53 83 163 133 228 37 49 39 47 17 -24 -16 -53 -45 -208 -39 -214 2 -1 46 11 97 28 112 37 303 83 325 79 12 -2 7 -14 -24 -53 -254 -326 -433 -784 -468 -1207 -28 -326 5 -609 129 -1088 55 -214 209 -735 221 -748 1 -2 8 34 15 80 13 89 52 226 78 270 14 24 13 37 -26 195 -23 92 -50 224 -62 293 -11 69 -22 139 -25 155 -3 17 21 -22 53 -85 68 -135 103 -186 113 -167 4 7 20 49 35 92 15 44 42 115 59 158 l32 79 -28 113 c-34 140 -84 521 -66 505 3 -3 17 -36 31 -73 35 -93 117 -267 126 -267 4 0 11 17 15 38 22 122 120 367 221 556 38 73 49 86 55 70 4 -10 40 -95 79 -189 197 -464 373 -740 642 -1001 164 -160 348 -294 551 -403 l97 -53 -20 54 c-61 155 -244 430 -521 782 -39 50 -55 77 -43 72 63 -24 228 -76 234 -74 3 2 -8 66 -27 143 -18 77 -44 192 -58 255 -14 63 -32 142 -40 175 -7 33 -23 116 -35 185 l-22 125 -48 50 c-26 28 -64 75 -83 105 -40 64 -90 161 -85 165 2 2 43 -32 91 -76 48 -43 89 -79 91 -79 3 0 2 42 -1 93 -16 265 60 543 179 655 l24 21 41 -62 c84 -130 258 -437 345 -612 431 -859 665 -1703 750 -2695 14 -164 17 -755 5 -930 -76 -1105 -390 -2183 -875 -3005 -483 -817 -1128 -1363 -1877 -1590 -515 -156 -1089 -163 -1604 -19 -481 134 -923 396 -1323 783 -54 52 -98 97 -98 100 0 3 41 56 91 116 83 101 200 253 341 445 110 149 232 329 453 670 13 19 77 123 142 230 717 1174 1240 2383 1372 3172 125 743 -60 1516 -508 2128 -311 424 -763 767 -1256 955 -505 192 -1084 236 -1604 120 -1130 -250 -1976 -1139 -2171 -2280 -55 -323 -46 -717 25 -1053 137 -646 486 -1504 974 -2397 132 -240 407 -708 516 -875 307 -473 492 -735 735 -1039 63 -79 124 -155 134 -168 l19 -25 -74 -75 c-418 -424 -965 -731 -1509 -847 -367 -78 -799 -82 -1165 -10 -358 70 -738 230 -1050 443 -247 167 -561 462 -759 711 -355 448 -650 1000 -857 1608 -180 530 -309 1135 -355 1667 -3 44 -8 91 -9 105 -7 58 -17 317 -19 475 -6 558 80 1178 243 1742 354 1223 1034 2269 1996 3070 925 770 2066 1253 3265 1382 350 38 878 51 1027 25 l32 -6 -196 -292 c-222 -329 -378 -560 -530 -784 -58 -85 -102 -159 -100 -166 3 -7 31 -23 64 -36 87 -35 245 -40 333 -10 173 58 445 256 1083 788 149 125 304 253 342 284 l70 56 260 -59 c526 -119 635 -140 755 -146 261 -12 448 63 513 206 16 35 21 66 21 131 0 76 -3 92 -33 154 -67 138 -217 265 -456 384 -218 109 -315 144 -635 232 -121 33 -217 65 -219 72 -13 40 -317 627 -426 823 -310 556 -442 737 -587 805 -96 45 -258 68 -258 38z m-170 -5608 c721 -87 1349 -537 1650 -1183 119 -257 190 -619 192 -977 0 -180 -4 -226 -33 -405 -148 -889 -816 -2360 -1604 -3535 -185 -275 -414 -580 -435 -580 -15 0 -143 163 -301 385 -177 247 -376 560 -576 905 -670 1159 -1111 2271 -1188 2995 -9 81 -9 329 0 440 9 115 40 317 65 421 156 644 640 1179 1285 1419 122 45 358 101 480 113 127 13 365 14 465 2z"/>
    <path d="M13868 16880 c-189 -34 -344 -117 -474 -252 -160 -164 -237 -359 -236 -593 1 -405 286 -746 686 -822 111 -21 295 -13 390 17 203 64 364 184 471 348 59 92 89 160 114 259 70 272 -7 572 -198 775 -121 129 -241 202 -406 249 -79 22 -272 33 -347 19z"/>
    <!-- <path d="M498 6890 c-52 -16 -98 -52 -126 -98 l-27 -47 0 -1495 0 -1495 24 -42 c27 -47 80 -88 132 -103 46 -13 504 -13 552 1 47 13 102 60 128 110 18 37 19 64 19 654 l0 615 795 0 795 0 0 -615 c0 -590 1 -617 19 -654 26 -50 81 -97 128 -110 48 -14 506 -14 552 -1 52 15 105 56 132 103 l24 42 0 1495 0 1495 -28 47 c-18 31 -44 57 -75 75 l-47 28 -255 3 c-281 4 -315 -1 -375 -51 -77 -63 -75 -45 -75 -659 l0 -548 -795 0 -795 0 0 548 c0 510 -2 550 -19 588 -22 49 -78 97 -130 113 -44 13 -510 14 -553 1z"/>
    <path d="M10611 6882 c-19 -9 -44 -30 -55 -45 -21 -28 -21 -31 -21 -1225 0 -1284 0 -1281 51 -1460 23 -79 81 -204 123 -266 37 -55 126 -139 193 -182 87 -58 189 -97 318 -125 224 -48 862 -19 976 45 64 35 74 68 74 239 0 167 -10 205 -64 238 -40 24 -165 25 -347 3 -154 -19 -219 -11 -315 36 -75 37 -126 91 -166 176 -52 111 -57 173 -58 667 l0 447 335 0 c372 0 388 2 425 62 18 30 20 50 20 222 l0 188 -39 39 -39 39 -351 0 -351 0 0 413 c0 385 -1 414 -19 443 -37 60 -58 64 -373 64 -250 0 -287 -2 -317 -18z"/>
    <path d="M14206 6888 c-54 -15 -121 -82 -136 -137 -7 -28 -10 -102 -8 -202 3 -157 3 -157 33 -201 17 -24 51 -54 75 -68 l45 -25 543 -3 542 -3 0 -1227 c0 -791 4 -1240 10 -1263 16 -56 51 -101 100 -129 44 -25 49 -25 302 -28 165 -2 271 1 297 8 50 13 106 60 132 111 18 37 19 71 19 1283 l0 1245 548 3 547 3 42 24 c24 14 55 42 70 64 28 40 28 42 31 221 3 174 2 183 -21 226 -16 30 -40 55 -72 75 l-48 30 -1506 2 c-1006 1 -1519 -2 -1545 -9z"/>
    <path d="M28561 6882 c-19 -9 -44 -30 -55 -45 -21 -28 -21 -28 -24 -1575 -2 -1458 -1 -1549 15 -1581 10 -19 31 -44 46 -55 27 -20 43 -21 323 -24 327 -3 347 0 385 62 18 30 19 82 19 1586 0 1504 -1 1556 -19 1586 -37 60 -58 64 -373 64 -250 0 -287 -2 -317 -18z"/>
    <path d="M5345 6163 c-608 -30 -939 -192 -1021 -498 -21 -78 -18 -193 6 -233 36 -59 65 -64 319 -60 219 3 228 4 282 29 32 15 80 51 115 86 35 36 85 74 124 93 161 81 439 93 590 24 129 -59 194 -170 207 -356 l6 -86 -494 -4 c-553 -5 -593 -9 -795 -77 -157 -52 -252 -109 -355 -211 -70 -69 -94 -101 -128 -170 -60 -123 -75 -192 -75 -340 0 -148 15 -217 76 -340 33 -68 58 -102 127 -171 171 -171 393 -260 723 -290 346 -32 688 48 943 220 l43 29 4 -59 c5 -68 27 -105 79 -131 30 -16 66 -18 282 -18 276 0 302 5 338 64 18 30 19 66 19 827 0 865 -2 898 -57 1054 -161 451 -610 655 -1358 618z m625 -1703 l0 -180 -42 -27 c-60 -37 -170 -87 -260 -117 -138 -47 -214 -59 -363 -60 -124 0 -147 2 -199 23 -63 25 -138 87 -162 132 -46 89 -37 207 20 282 37 48 121 102 180 116 23 5 218 9 434 10 l392 1 0 -180z"/>
    <path d="M8775 6159 c-206 -27 -413 -122 -600 -275 -30 -24 -57 -44 -60 -44 -3 0 -5 42 -5 93 0 107 -16 143 -74 171 -32 15 -69 17 -330 14 -280 -3 -296 -4 -323 -24 -15 -11 -36 -36 -45 -55 -17 -32 -18 -109 -18 -1179 0 -1070 1 -1147 18 -1179 9 -19 30 -44 45 -55 27 -20 43 -21 323 -24 327 -3 347 0 385 62 18 30 19 66 19 821 l0 791 58 56 c222 217 461 316 660 274 135 -28 227 -99 282 -219 59 -127 60 -146 60 -944 0 -673 1 -731 18 -762 9 -19 30 -44 45 -55 27 -20 43 -21 323 -24 327 -3 347 0 385 62 18 30 19 65 19 791 0 808 -3 859 -50 1033 -86 312 -276 517 -575 619 -143 48 -406 73 -560 52z"/>
    <path d="M18977 6160 c-283 -25 -492 -99 -722 -255 -53 -36 -98 -65 -101 -65 -2 0 -4 42 -4 93 0 107 -16 143 -74 171 -32 15 -69 17 -330 14 -280 -3 -296 -4 -323 -24 -15 -11 -36 -36 -45 -55 -17 -32 -18 -109 -18 -1179 0 -1070 1 -1147 18 -1179 9 -19 30 -44 45 -55 27 -20 43 -21 323 -24 327 -3 347 0 385 62 18 30 19 65 19 790 l0 760 108 105 c109 108 176 155 279 196 101 41 166 46 423 33 266 -13 292 -8 330 54 18 30 20 50 20 251 0 238 -4 258 -57 292 -33 22 -132 27 -276 15z"/>
    <path d="M20635 6163 c-608 -30 -939 -192 -1021 -498 -21 -78 -18 -193 6 -233 36 -59 65 -64 319 -60 219 3 228 4 282 29 32 15 80 51 115 86 35 36 85 74 124 93 161 81 439 93 590 24 129 -59 194 -170 207 -356 l6 -86 -494 -4 c-553 -5 -593 -9 -795 -77 -157 -52 -252 -109 -355 -211 -70 -69 -94 -101 -128 -170 -60 -123 -75 -192 -75 -340 0 -148 15 -217 76 -340 33 -68 58 -102 127 -171 171 -171 393 -260 723 -290 346 -32 688 48 943 220 l43 29 4 -59 c5 -68 27 -105 79 -131 30 -16 66 -18 282 -18 276 0 302 5 338 64 18 30 19 66 19 827 0 865 -2 898 -57 1054 -161 451 -610 655 -1358 618z m625 -1703 l0 -180 -42 -27 c-60 -37 -170 -87 -260 -117 -138 -47 -214 -59 -363 -60 -124 0 -147 2 -199 23 -63 25 -138 87 -162 132 -46 89 -37 207 20 282 37 48 121 102 180 116 23 5 218 9 434 10 l392 1 0 -180z"/>
    <path d="M26575 6163 c-319 -27 -553 -108 -753 -260 -217 -166 -355 -411 -414 -733 -27 -152 -30 -456 -4 -605 94 -557 426 -890 982 -985 287 -49 754 -29 1038 45 354 92 546 288 546 558 0 77 -15 115 -57 143 -26 17 -49 19 -268 19 l-240 0 -58 -27 c-36 -17 -81 -51 -118 -89 -99 -99 -222 -146 -414 -156 -373 -19 -580 144 -621 490 l-7 57 887 0 c967 0 922 -3 962 57 17 25 19 47 18 213 -1 117 -7 220 -17 280 -100 595 -487 932 -1137 990 -109 9 -237 11 -325 3z m288 -528 c133 -28 235 -94 299 -195 37 -59 76 -183 84 -270 l7 -70 -537 0 -536 0 6 43 c13 100 37 190 66 249 39 78 125 166 199 201 110 54 276 71 412 42z"/>
    <path d="M22354 6106 c-38 -17 -58 -63 -51 -119 3 -27 186 -429 518 -1136 569 -1211 541 -1160 666 -1219 57 -26 63 -27 275 -30 237 -4 303 5 375 52 93 59 86 45 626 1196 283 602 517 1111 520 1130 10 52 -5 92 -43 118 -32 21 -40 22 -284 22 -275 0 -331 -8 -407 -56 -89 -56 -92 -61 -431 -836 -177 -406 -325 -735 -329 -730 -4 4 -149 334 -324 734 -352 808 -343 791 -463 850 l-66 33 -276 2 c-216 2 -282 0 -306 -11z"/>
    <path d="M15797 2156 c-75 -28 -112 -82 -105 -156 9 -88 70 -140 165 -140 63 0 112 27 140 76 41 71 22 164 -41 203 -43 27 -112 34 -159 17z"/>
    <path d="M21217 2156 c-75 -28 -112 -82 -105 -156 9 -88 70 -140 165 -140 63 0 112 27 140 76 41 71 22 164 -41 203 -43 27 -112 34 -159 17z"/>
    <path d="M6740 1330 l0 -770 129 0 130 0 3 338 c3 327 4 338 26 388 44 97 138 161 252 171 124 12 218 -36 266 -134 l29 -58 3 -352 3 -353 125 0 124 0 0 370 c0 398 -4 438 -52 533 -76 153 -229 226 -446 214 -122 -6 -184 -26 -267 -82 l-65 -45 0 275 0 275 -130 0 -130 0 0 -770z"/>
    <path d="M19430 1790 l0 -130 -90 0 -90 0 0 -100 0 -100 89 0 90 0 3 -333 3 -332 33 -67 c37 -75 72 -110 152 -147 50 -24 66 -26 185 -26 132 0 167 8 232 50 l22 15 -34 86 c-19 47 -36 88 -38 90 -2 2 -19 -4 -38 -13 -23 -12 -57 -18 -106 -18 -68 0 -74 2 -107 34 -51 49 -57 93 -54 396 l3 260 148 3 147 3 0 99 0 99 -147 3 -148 3 -3 128 -3 127 -124 0 -125 0 0 -130z"/>
    <path d="M8390 1661 c-88 -19 -198 -64 -239 -98 l-23 -19 48 -90 c26 -49 48 -90 50 -92 1 -2 18 8 39 22 74 51 199 86 305 86 156 0 269 -91 270 -217 l0 -43 -169 0 c-343 0 -473 -44 -542 -186 -60 -122 -40 -265 49 -357 81 -85 202 -123 363 -115 128 7 198 31 269 94 l50 46 0 -66 0 -66 120 0 120 0 0 363 c0 391 -6 451 -53 543 -50 97 -150 168 -279 199 -87 20 -271 18 -378 -4z m450 -691 c0 -84 -13 -114 -71 -164 -115 -98 -338 -94 -400 8 -25 40 -25 112 0 149 42 65 82 75 304 76 l167 1 0 -70z"/>
    <path d="M10925 1670 c-106 -21 -227 -90 -296 -168 -55 -63 -116 -192 -129 -272 -32 -205 20 -381 149 -511 116 -116 259 -168 457 -169 168 0 302 45 402 135 l45 41 -68 77 c-37 42 -69 77 -72 77 -2 0 -21 -13 -41 -30 -84 -67 -213 -98 -329 -80 -88 14 -141 39 -197 90 -49 45 -102 140 -92 165 5 13 61 15 436 15 l430 0 0 88 c0 48 -7 116 -15 151 -44 187 -199 342 -386 386 -68 16 -226 18 -294 5z m270 -219 c90 -40 171 -137 177 -213 l3 -33 -312 -3 -313 -2 0 23 c0 43 59 145 106 183 89 74 231 93 339 45z"/>
    <path d="M12670 1661 c-88 -19 -198 -64 -239 -98 l-23 -19 48 -90 c26 -49 48 -90 50 -92 1 -2 18 8 39 22 74 51 199 86 305 86 156 0 269 -91 270 -217 l0 -43 -169 0 c-343 0 -473 -44 -542 -186 -60 -122 -40 -265 49 -357 81 -85 202 -123 363 -115 128 7 198 31 269 94 l50 46 0 -66 0 -66 120 0 120 0 0 363 c0 391 -6 451 -53 543 -50 97 -150 168 -279 199 -87 20 -271 18 -378 -4z m450 -691 c0 -84 -13 -114 -71 -164 -115 -98 -338 -94 -400 8 -25 40 -25 112 0 149 42 65 82 75 304 76 l167 1 0 -70z"/>
    <path d="M14767 1664 c-70 -17 -106 -34 -174 -85 l-53 -40 0 66 0 65 -125 0 -125 0 0 -555 0 -555 129 0 130 0 3 338 c3 327 4 338 26 388 44 97 138 161 252 171 124 12 218 -36 266 -134 l29 -58 3 -352 3 -353 125 0 124 0 0 370 c0 398 -4 438 -52 533 -52 104 -153 180 -276 206 -71 15 -213 13 -285 -5z"/>
    <path d="M16685 1670 c-317 -64 -509 -361 -440 -683 32 -151 139 -294 272 -365 123 -65 313 -90 455 -61 79 16 190 73 242 123 42 41 86 101 86 118 0 3 -42 31 -94 61 l-94 55 -58 -57 c-76 -73 -140 -96 -252 -89 -132 8 -227 71 -280 187 -23 49 -27 69 -27 156 0 87 3 107 26 155 51 109 129 168 252 191 109 20 211 -15 289 -99 l46 -49 94 54 c51 30 95 56 97 59 8 7 -23 56 -66 104 -50 56 -154 113 -244 135 -68 16 -236 18 -304 5z"/>
    <path d="M17865 1670 c-106 -21 -227 -90 -296 -168 -55 -63 -116 -192 -129 -272 -32 -205 20 -381 149 -511 116 -116 259 -168 457 -169 168 0 302 45 402 135 l45 41 -68 77 c-37 42 -69 77 -72 77 -2 0 -21 -13 -41 -30 -84 -67 -213 -98 -329 -80 -88 14 -141 39 -197 90 -49 45 -102 140 -92 165 5 13 61 15 436 15 l430 0 0 88 c0 48 -7 116 -15 151 -44 187 -199 342 -386 386 -68 16 -226 18 -294 5z m270 -219 c90 -40 171 -137 177 -213 l3 -33 -312 -3 -313 -2 0 23 c0 43 59 145 106 183 89 74 231 93 339 45z"/>
    <path d="M20755 1666 c-72 -18 -150 -61 -195 -108 l-40 -40 0 76 0 76 -125 0 -125 0 0 -555 0 -555 129 0 130 0 3 328 c3 320 4 328 27 380 48 107 158 174 287 175 l64 1 0 118 0 118 -52 -1 c-29 0 -75 -6 -103 -13z"/>
    <path d="M22213 1665 c-74 -20 -128 -50 -179 -97 l-44 -41 0 72 0 71 -125 0 -125 0 0 -755 0 -755 130 0 130 0 0 266 0 265 43 -34 c89 -73 191 -107 316 -107 172 0 307 56 412 168 235 251 187 697 -95 876 -95 61 -158 79 -291 82 -84 3 -136 -1 -172 -11z m264 -236 c71 -34 115 -80 152 -159 36 -76 37 -216 2 -303 -31 -78 -102 -148 -178 -177 -81 -31 -206 -25 -279 12 -128 66 -196 213 -173 376 32 230 265 353 476 251z"/>
    <path d="M9240 1663 c0 -4 105 -252 232 -550 l233 -543 136 0 135 0 236 550 236 551 -125 -3 -125 -3 -173 -400 c-96 -220 -177 -398 -182 -395 -4 2 -82 182 -173 400 l-165 395 -133 3 c-72 1 -132 -1 -132 -5z"/>
    <path d="M15720 1115 l0 -555 130 0 130 0 0 555 0 555 -130 0 -130 0 0 -555z"/>
    <path d="M21140 1115 l0 -555 130 0 130 0 0 555 0 555 -130 0 -130 0 0 -555z"/> -->
    </g>
    </svg>
